<?xml version="1.0" encoding="utf-8"?>
<!-- Generator: Adobe Illustrator 23.0.2, SVG Export Plug-In . SVG Version: 6.00 Build 0)  -->
<svg version="1.1" id="Layer_1" xmlns="http://www.w3.org/2000/svg" xmlns:xlink="http://www.w3.org/1999/xlink" x="0px" y="0px"
	 viewBox="0 0 393.6961 110.8989" style="enable-background:new 0 0 393.6961 110.8989;" xml:space="preserve">
<style type="text/css">
	.st0{enable-background:new    ;}
	.st1{fill:#2B2B2B;}
	.st2{fill:url(#SVGID_1_);}
	.st3{fill:url(#SVGID_2_);}
	.st4{fill:url(#SVGID_3_);}
</style>
<title>wptg-logo-7</title>
<g class="st0">
	<path class="st1" d="M0,16.8457h25.2031v1.4248c-4.8379,0.2598-7.2563,2.1357-7.2563,5.6279c0,1.7246,0.8584,5.3047,2.5752,10.7383
		l7.856,24.1274l11.0435-29.1733c0.8657-2.2422,1.2988-4.0537,1.2988-5.4336c0-3.709-2.2461-5.6709-6.7383-5.8867v-1.4248h24.8149
		v1.4248c-2.1167,0.3018-3.6069,0.7559-4.4707,1.3594c-1.3828,0.9492-2.0732,2.3711-2.0732,4.2686
		c0,1.5107,0.4092,3.6445,1.2271,6.4043l8.5239,28.4614l10.0527-25.6157c1.2886-3.3203,1.9336-5.8438,1.9336-7.5684
		c0-2.3281-0.813-4.1172-2.439-5.3682c-0.814-0.6895-2.29-1.3369-4.4292-1.9414v-1.4248h19.0483v1.4248
		c-1.8574,0-3.521,0.6045-4.9888,1.8125c-0.9507,0.7334-1.8467,1.8447-2.6885,3.333c-0.8423,1.4873-1.8467,3.7207-3.0132,6.6973
		l-1.3652,3.2998l-15.415,38.5034h-2.2676L42.2754,28.6377L25.2031,71.9165h-2.2026L10.0493,32.7021l-1.562-4.7246
		c-1.4253-4.2705-2.8945-6.9678-4.4058-8.0889C3.2168,19.1982,1.8564,18.6592,0,18.2705V16.8457z"/>
	<path class="st1" d="M82.4126,16.8457h25.1387v1.4248c-1.772,0.2598-3.0454,0.6035-3.8228,1.0352
		c-1.6846,0.9492-2.5269,2.415-2.5269,4.3994c0,1.7246,0.8809,4.8086,2.6431,9.251l10.8335,27.7515l9.459-23.353
		c2.3325-5.8223,3.499-9.9404,3.499-12.3555c0-1.9404-0.541-3.4824-1.6201-4.626c-1.0801-1.1426-2.6563-1.8428-4.7295-2.1025
		v-1.4248h18.5298v1.4248c-1.8574,0.5186-3.229,1.0596-4.1143,1.6201c-0.8857,0.5615-1.7388,1.4473-2.5591,2.6563
		c-1.2534,1.9014-3.2393,6.1553-5.9604,12.7637l-18.7891,45.6118c-2.2466,5.4424-4.0605,8.9834-5.4424,10.626
		c-2.3325,2.7207-5.2915,4.0811-8.8765,4.0811c-2.29,0-4.1362-0.4434-5.5396-1.3281c-1.4043-0.8857-2.1055-2.041-2.1055-3.4658
		c0-1.124,0.4087-2.0195,1.2271-2.6895c0.8179-0.6699,1.895-1.0039,3.23-1.0039c1.1196,0,2.4116,0.3018,3.8765,0.9072
		c1.4214,0.5605,2.3364,0.9072,2.7456,1.0361c0.4087,0.1299,0.8936,0.1943,1.4536,0.1943c2.6704,0,4.8452-2.0166,6.5244-6.0498
		l2.0034-4.9443c0.8608-2.082,1.292-3.6865,1.292-4.8145c0-1.5947-0.8179-4.3779-2.4531-8.3477L92.9014,32.8311l-1.9365-4.6582
		c-1.166-2.7617-2.0732-4.7246-2.7212-5.8896s-1.2959-2.0059-1.9438-2.5244c-1.0801-0.8184-2.376-1.3145-3.8872-1.4883V16.8457z"/>
	<path class="st1" d="M195.2769,65.6323l1.1016,0.6475c-1.5552,4.5352-5.1187,6.8027-10.6904,6.8027
		c-3.0713,0-5.6235-0.7559-7.6563-2.2676c-1.3413-0.9932-2.7251-2.7207-4.1528-5.1826c-2.8994,2.5908-5.084,4.2979-6.5537,5.1182
		c-2.8125,1.5547-6.0781,2.332-9.7974,2.332c-4.7593,0-8.5332-1.1445-11.3232-3.4336s-4.1851-5.3779-4.1851-9.2646
		c0-3.585,1.144-6.5869,3.4341-9.0059c1.2954-1.3389,2.7856-2.4072,4.4702-3.207c1.6846-0.7988,4.1245-1.6094,7.3213-2.4297
		c3.7578-0.9502,6.5327-1.75,8.3257-2.3975c1.792-0.6484,3.293-1.4258,4.5029-2.333c1.3818-0.9932,2.3325-2.1592,2.8506-3.4976
		c0.5186-1.3389,0.7778-3.1963,0.7778-5.5723c0-5.0537-0.9507-8.7461-2.8511-11.0791c-0.8643-1.0791-1.9761-1.9434-3.3364-2.5918
		c-1.3608-0.6475-2.7759-0.9717-4.2441-0.9717c-1.7715,0-3.3477,0.4541-4.7295,1.3604c-1.3828,0.9072-2.4194,2.1611-3.1099,3.7578
		l-1.6196,3.7578c-0.8647,2.0313-2.4194,3.0459-4.665,3.0459c-1.4688,0-2.6997-0.4863-3.6929-1.458
		c-0.9941-0.9717-1.4902-2.1914-1.4902-3.6611c0-2.2021,1.5566-4.0596,4.6729-5.5713c1.6865-0.7773,3.7739-1.4141,6.2622-1.9111
		c2.4873-0.4961,4.9214-0.7451,7.3003-0.7451c2.6826,0,5.4727,0.3457,8.3721,1.0361c2.8984,0.6914,5.3208,1.5771,7.2686,2.6563
		c2.8115,1.5986,4.5635,3.6719,5.2559,6.2197c0.3467,1.2959,0.5195,3.4775,0.5195,6.5439v23.9722
		c0,4.0605,0.1724,6.8252,0.5186,8.293c0.7339,3.0674,2.5044,4.6006,5.3125,4.6006c1.3384,0,2.3862-0.2373,3.1426-0.7129
		C193.3433,68.0083,194.2402,67.0571,195.2769,65.6323z M173.8315,40.105c-2.3252,1.9434-4.8877,3.6504-7.6855,5.1182
		c-3.1436,1.6846-5.3179,2.959-6.5239,3.8223c-1.2056,0.8652-2.3027,1.9014-3.293,3.1104
		c-2.0249,2.5049-3.0361,5.4209-3.0361,8.7461c0,2.8516,0.7856,5.2061,2.3569,7.0625c1.5708,1.8574,3.5635,2.7861,5.9746,2.7861
		c2.1099,0,4.1011-0.6582,5.9741-1.9766c1.8726-1.3164,3.2827-3.0771,4.2305-5.2803c1.3345-2.8936,2.0024-7.083,2.0024-12.5693
		V40.105z"/>
	<path class="st1" d="M213.2241,16.8457h16.457v2.4619h-16.457v37.7075c0,4.5352,0.7744,7.7744,2.3252,9.7178
		c0.8184,1.0801,1.8945,1.9229,3.2285,2.5273c1.334,0.6055,2.7764,0.9072,4.3271,0.9072c1.9375,0,3.5518-0.3994,4.8438-1.1992
		c1.292-0.7988,2.7119-2.2559,4.2617-4.373l0.9688,0.8428c-1.4248,2.5908-3.4238,4.5137-5.9932,5.7656
		c-2.5703,1.2529-5.7773,1.8789-9.6211,1.8789c-5.0967,0-8.8115-0.9941-11.1436-2.9805c-1.2539-1.0361-2.0732-2.2773-2.4619-3.7246
		s-0.584-4.0498-0.584-7.8076V19.3076h-6.9321v-1.0371c2.8071-0.9063,5.4009-2.6563,7.7808-5.248
		c1.4336-1.5967,2.5859-3.1846,3.4551-4.7617c0.8701-1.5762,1.6963-3.6172,2.4795-6.123L210.811,0h2.4131V16.8457z"/>
	<path class="st1" d="M247.6274,16.8457h16.457v2.4619h-16.457v37.7075c0,4.5352,0.7744,7.7744,2.3252,9.7178
		c0.8184,1.0801,1.8945,1.9229,3.2285,2.5273c1.334,0.6055,2.7764,0.9072,4.3271,0.9072c1.9375,0,3.5518-0.3994,4.8438-1.1992
		c1.292-0.7988,2.7119-2.2559,4.2617-4.373l0.9688,0.8428c-1.4248,2.5908-3.4238,4.5137-5.9932,5.7656
		c-2.5703,1.2529-5.7773,1.8789-9.6211,1.8789c-5.0967,0-8.8115-0.9941-11.1436-2.9805c-1.2539-1.0361-2.0732-2.2773-2.4619-3.7246
		s-0.584-4.0498-0.584-7.8076V19.3076h-6.9316v-1.0371c2.8066-0.9063,5.4004-2.6563,7.7803-5.248
		c1.4336-1.5967,2.5859-3.1846,3.4551-4.7617c0.8701-1.5762,1.6963-3.6172,2.4795-6.123L245.2144,0h2.4131V16.8457z"/>
</g>
<g class="st0">
	<path d="M3.8398,86.0571h4.5034c3.8755,0,6.0752,1.3379,6.0752,5.0137c0,3.5078-2.1997,5.2344-6.0752,5.2344H4.6777v8.1318H3.8398
		V86.0571z M8.0293,95.5259c3.7183,0,5.4985-1.2813,5.4985-4.4551c0-3.2305-1.7803-4.2334-5.4985-4.2334H4.6777v8.6885H8.0293z"/>
</g>
<g class="st0">
	<path d="M24.2627,96.1392c0.0522-2.1729-0.4712-4.5674-3.0898-4.5674c-1.7808,0-3.2993,0.9463-4.0845,1.6143l-0.4189-0.668
		c0.7852-0.6123,2.5137-1.7266,4.5557-1.7266c2.9326,0,3.8232,2.3398,3.8232,5.0127v8.6328h-0.6812l-0.1045-1.7822h-0.0522
		c-1.3096,1.1133-2.8804,2.1162-4.5562,2.1162c-1.938,0-3.6138-1.0576-3.6138-3.5928
		C16.0405,98.1997,18.6069,96.8071,24.2627,96.1392z M19.7065,103.9917c1.5186,0,2.8804-0.7803,4.5562-2.2842v-4.8447
		c-5.4985,0.668-7.3843,2.0049-7.3843,4.2881C16.8784,103.2114,18.188,103.9917,19.7065,103.9917z"/>
	<path d="M29.7061,91.1255h0.6807l0.105,2.5068h0.0522c0.8379-1.6152,2.0425-2.8408,3.561-2.8408
		c0.4189,0,0.7856,0.0566,1.2046,0.2793l-0.2095,0.7793c-0.4189-0.167-0.6284-0.2227-1.0996-0.2227
		c-1.1523,0-2.5137,0.9473-3.5088,3.5645v9.2451h-0.7856V91.1255z"/>
	<path d="M37.9785,91.9058h-1.9897v-0.6689l1.9897-0.1113l0.105-3.8984h0.6807v3.8984h3.7183v0.7803h-3.7183v9.1338
		c0,1.7266,0.3667,2.9521,2.1992,2.9521c0.4717,0,1.1523-0.2236,1.6235-0.4463l0.2622,0.7246
		c-0.7334,0.2783-1.519,0.501-1.938,0.501c-2.3042,0-2.9326-1.5596-2.9326-3.8428V91.9058z"/>
	<path d="M45.1514,86.7817c0-0.6123,0.4189-0.9473,0.8901-0.9473s0.8901,0.335,0.8901,0.9473c0,0.5566-0.4189,0.9473-0.8901,0.9473
		S45.1514,87.3384,45.1514,86.7817z M45.6226,91.1255h0.7856v13.3115h-0.7856V91.1255z"/>
	<path d="M55.938,90.7915c1.728,0,2.8276,0.8359,3.6655,1.6719l-0.5239,0.6113c-0.8379-0.835-1.8325-1.5029-3.1416-1.5029
		c-2.6709,0-4.7656,2.5615-4.7656,6.2373s1.8853,6.1826,4.7656,6.1826c1.4136,0,2.6182-0.7236,3.5083-1.6152l0.4712,0.6123
		c-1.0469,1.0029-2.3564,1.7822-3.9795,1.7822c-3.1948,0-5.6035-2.5615-5.6035-6.9619
		C50.3345,93.354,52.9526,90.7915,55.938,90.7915z"/>
	<path d="M63.1099,84.3306h0.7856v18.8262c0,0.5566,0.2095,0.835,0.5234,0.835c0.105,0,0.2095,0,0.4712-0.0557l0.1572,0.7236
		c-0.2095,0.0557-0.3662,0.1113-0.6807,0.1113c-0.7856,0-1.2568-0.501-1.2568-1.7822V84.3306z"/>
	<path d="M73.4253,90.7915c2.8799,0,4.7129,2.1719,4.7129,6.127c0,0.2783,0,0.5566-0.0522,0.8906h-9.2168
		c0,3.5645,1.9375,6.1826,4.9224,6.1826c1.4141,0,2.5137-0.501,3.4565-1.2256l0.3667,0.7246
		c-0.9429,0.6123-1.9902,1.2803-3.8755,1.2803c-3.1421,0-5.708-2.6182-5.708-6.9619S70.6494,90.7915,73.4253,90.7915z
		 M77.3525,97.0854c0-3.6758-1.5708-5.5137-3.9272-5.5137c-2.252,0-4.2944,2.1162-4.5562,5.5137H77.3525z"/>
</g>
<g class="st0">
	<path d="M119.6704,87.1177h-5.6035v-0.7803h12.0449v0.7803h-5.6035v17.5996h-0.8379V87.1177z"/>
	<path d="M129.3032,84.6108h0.7856v5.96v3.0068c1.3613-1.4482,2.6704-2.5059,4.3989-2.5059c2.5659,0,3.7705,1.6152,3.7705,5.0674
		v8.5781h-0.7856v-8.4658c0-2.9521-0.8901-4.3994-3.0376-4.3994c-1.5708,0-2.7227,0.8906-4.3462,2.6729v10.1924h-0.7856V84.6108z"/>
	<path d="M147.2622,91.0718c2.8804,0,4.7134,2.1719,4.7134,6.126c0,0.2793,0,0.5566-0.0522,0.8916h-9.2168
		c0,3.5645,1.9375,6.1816,4.9224,6.1816c1.4141,0,2.5137-0.501,3.4565-1.2256l0.3662,0.7246
		c-0.9424,0.6133-1.9897,1.2813-3.875,1.2813c-3.1421,0-5.708-2.6182-5.708-6.9619
		C141.8687,93.7446,144.4868,91.0718,147.2622,91.0718z M151.1899,97.3657c0-3.6758-1.5708-5.5137-3.9277-5.5137
		c-2.2515,0-4.2939,2.1152-4.5557,5.5137H151.1899z"/>
</g>
<g class="st0">
	<path d="M155.4927,91.4058h0.6807l0.105,2.5068h0.0522c0.8379-1.6152,2.0425-2.8408,3.561-2.8408
		c0.4189,0,0.7856,0.0557,1.2046,0.2783l-0.2095,0.7793c-0.4189-0.166-0.6284-0.2227-1.1001-0.2227
		c-1.1519,0-2.5137,0.9473-3.5083,3.5645v9.2461h-0.7856V91.4058z"/>
</g>
<g class="st0">
	<path d="M170.4165,96.4185c0.0522-2.1719-0.4717-4.5664-3.0898-4.5664c-1.7803,0-3.2993,0.9463-4.085,1.6143l-0.4189-0.668
		c0.7856-0.6123,2.5137-1.7266,4.5562-1.7266c2.9326,0,3.8228,2.3389,3.8228,5.0127v8.6328h-0.6807l-0.1045-1.7832h-0.0527
		c-1.3091,1.1143-2.8799,2.1172-4.5557,2.1172c-1.9375,0-3.6133-1.0586-3.6133-3.5928
		C162.1948,98.479,164.7607,97.0864,170.4165,96.4185z M165.8604,104.271c1.5186,0,2.8804-0.7793,4.5562-2.2832v-4.8457
		c-5.499,0.6689-7.3838,2.0049-7.3838,4.2881C163.0327,103.4917,164.3418,104.271,165.8604,104.271z"/>
	<path d="M176.6455,105.8862v5.0127h-0.7856V91.4058h0.6807l0.105,1.7266h0.0522c1.2568-1.0576,2.7754-2.0605,4.3467-2.0605
		c3.4038,0,5.0273,2.6729,5.0273,6.7939c0,4.5117-2.5664,7.1855-5.5513,7.1855c-1.2046,0-2.5137-0.6133-3.875-1.6709V105.8862z
		 M180.5728,104.271c2.7236,0,4.6611-2.6729,4.6611-6.4053c0-3.3965-1.1523-6.0137-4.2422-6.0137
		c-1.3091,0-2.7227,0.835-4.3462,2.3379v8.2432C178.1641,103.77,179.5781,104.271,180.5728,104.271z"/>
	<path d="M189.2632,110.063c1.5708,0,2.6704-1.6152,3.3516-3.7871l0.3662-1.2246l-5.1846-13.6455h0.8906l3.1943,8.7441
		c0.4189,1.1143,0.9424,2.5615,1.4141,3.7314h0.1045c0.4189-1.1699,0.8379-2.6172,1.2046-3.7314l2.8276-8.7441h0.8379
		l-5.0273,15.2041c-0.6279,2.0605-1.8848,4.2891-4.0322,4.2891c-0.4189,0-0.8901-0.1113-1.2041-0.2783l0.209-0.7803
		C188.4775,109.9517,188.8965,110.063,189.2632,110.063z"/>
	<path d="M212.6685,86.0034c2.3037,0,3.7178,1.1689,4.6084,2.1719l-0.5234,0.6123c-0.8906-1.0576-2.1475-1.9492-4.085-1.9492
		c-4.1377,0-6.6514,3.3418-6.6514,8.6328s2.4092,8.7441,6.4414,8.7441c1.6758,0,3.2471-0.5566,4.1367-1.5039v-6.0703h-4.293v-0.7793
		h5.1309v7.1289c-1.0469,1.2246-2.7754,2.0605-5.0273,2.0605c-4.3984,0-7.2783-3.7871-7.2783-9.5801
		C205.1274,89.6792,208.1128,86.0034,212.6685,86.0034z"/>
</g>
<g class="st0">
	<path d="M221.7808,91.4058h0.6816l0.1045,2.5068h0.0518c0.8379-1.6152,2.043-2.8408,3.5615-2.8408
		c0.4189,0,0.7861,0.0557,1.2041,0.2783l-0.209,0.7793c-0.4189-0.166-0.6289-0.2227-1.0996-0.2227
		c-1.1523,0-2.5137,0.9473-3.5088,3.5645v9.2461h-0.7861V91.4058z"/>
</g>
<g class="st0">
	<path d="M233.9878,91.0718c2.9854,0,5.5508,2.5615,5.5508,7.0176c0,4.3994-2.5654,6.9619-5.5508,6.9619
		c-2.9844,0-5.5508-2.5625-5.5508-6.9619C228.437,93.6333,231.0034,91.0718,233.9878,91.0718z M233.9878,104.271
		c2.6709,0,4.7129-2.5059,4.7129-6.1816c0-3.6768-2.042-6.2373-4.7129-6.2373s-4.7129,2.5605-4.7129,6.2373
		C229.2749,101.7651,231.3169,104.271,233.9878,104.271z"/>
	<path d="M243.2544,91.4058h0.7861v8.4658c0,2.9512,0.8896,4.3994,3.0371,4.3994c1.5703,0,2.7227-0.8906,4.2939-2.8955v-9.9697
		h0.7852v13.3115h-0.6807l-0.1045-2.2842h-0.0527c-1.2568,1.5596-2.5654,2.6182-4.2939,2.6182
		c-2.5664,0-3.7705-1.6152-3.7705-5.0684V91.4058z"/>
	<path d="M257.9663,105.8862v5.0127h-0.7852V91.4058h0.6807l0.1045,1.7266h0.0527c1.2568-1.0576,2.7754-2.0605,4.3467-2.0605
		c3.4033,0,5.0273,2.6729,5.0273,6.7939c0,4.5117-2.5664,7.1855-5.5518,7.1855c-1.2041,0-2.5137-0.6133-3.875-1.6709V105.8862z
		 M261.894,104.271c2.7236,0,4.6611-2.6729,4.6611-6.4053c0-3.3965-1.1523-6.0137-4.2422-6.0137
		c-1.3096,0-2.7227,0.835-4.3467,2.3379v8.2432C259.4858,103.77,260.8999,104.271,261.894,104.271z"/>
</g>
<linearGradient id="SVGID_1_" gradientUnits="userSpaceOnUse" x1="-471.8028" y1="702.8731" x2="-408.7728" y2="702.8731" gradientTransform="matrix(-0.47 0.88 0.88 0.47 -497.7141 123.199)">
	<stop  offset="0.21" style="stop-color:#FFFFFF;stop-opacity:0"/>
	<stop  offset="1" style="stop-color:#084998"/>
</linearGradient>
<circle class="st2" cx="327.4661" cy="66.6269" r="31.52"/>
<linearGradient id="SVGID_2_" gradientUnits="userSpaceOnUse" x1="397.0333" y1="170.0589" x2="460.0904" y2="170.0589" gradientTransform="matrix(0.9383 0.3458 0.3458 -0.9383 -98.7533 71.373)">
	<stop  offset="0.24" style="stop-color:#FFFFFF;stop-opacity:0"/>
	<stop  offset="0.99" style="stop-color:#4D4D4D"/>
</linearGradient>
<circle class="st3" cx="362.1761" cy="59.9969" r="31.52"/>
<linearGradient id="SVGID_3_" gradientUnits="userSpaceOnUse" x1="-985.2419" y1="89.3086" x2="-922.1916" y2="89.3086" gradientTransform="matrix(-0.1714 -0.9852 -0.9852 0.1714 262.1131 -916.5528)">
	<stop  offset="0.24" style="stop-color:#FFFFFF;stop-opacity:0"/>
	<stop  offset="1" style="stop-color:#C33310"/>
	<stop  offset="1" style="stop-color:#009561"/>
</linearGradient>
<circle class="st4" cx="337.6061" cy="38.3569" r="31.52"/>
</svg>
