<svg id="Layer_1" data-name="Layer 1" xmlns="http://www.w3.org/2000/svg" xmlns:xlink="http://www.w3.org/1999/xlink" width="525" height="900" viewBox="0 0 525 900"><defs><style>.cls-1{fill:#fff;}.cls-2{isolation:isolate;}.cls-3{fill:#2b2b2b;}.cls-4{fill:url(#linear-gradient);}.cls-5{fill:url(#linear-gradient-2);}.cls-6{fill:url(#linear-gradient-3);}</style><linearGradient id="linear-gradient" x1="-417.24" y1="1060.764" x2="-373.291" y2="1060.764" gradientTransform="matrix(-0.47, 0.88, 0.88, 0.47, -765.88, 285.05)" gradientUnits="userSpaceOnUse"><stop offset="0.21" stop-color="#fff" stop-opacity="0"/><stop offset="1" stop-color="#084998"/></linearGradient><linearGradient id="linear-gradient-2" x1="410.899" y1="602.538" x2="454.867" y2="602.538" gradientTransform="matrix(0.938, 0.346, 0.346, -0.938, -237.16, 847.205)" gradientUnits="userSpaceOnUse"><stop offset="0.24" stop-color="#fff" stop-opacity="0"/><stop offset="0.99" stop-color="#4d4d4d"/></linearGradient><linearGradient id="linear-gradient-3" x1="-871.471" y1="536.009" x2="-827.508" y2="536.009" gradientTransform="matrix(-0.171, -0.985, -0.985, 0.171, 742.701, -512.361)" gradientUnits="userSpaceOnUse"><stop offset="0.24" stop-color="#fff" stop-opacity="0"/><stop offset="1" stop-color="#c33310"/><stop offset="1" stop-color="#009561"/></linearGradient></defs><title>logo1</title><rect class="cls-1" width="525" height="900"/><g class="cls-2"><path class="cls-3" d="M124.838,401.435h17.573v.994q-5.059.27-5.059,3.924,0,1.8,1.795,7.487l5.478,16.824,7.7-20.342a11.169,11.169,0,0,0,.906-3.788q0-3.88-4.7-4.105v-.994h17.3v.994a7.618,7.618,0,0,0-3.117.947,3.369,3.369,0,0,0-1.446,2.977,17.035,17.035,0,0,0,.855,4.465l5.944,19.846,7.01-17.862a16.209,16.209,0,0,0,1.348-5.277,4.441,4.441,0,0,0-1.7-3.743,8.686,8.686,0,0,0-3.088-1.353v-.994h13.282v.994a5.329,5.329,0,0,0-3.479,1.263,7.671,7.671,0,0,0-1.875,2.324,39,39,0,0,0-2.1,4.67l-.952,2.3-10.749,26.847h-1.581l-9.871-30.177-11.9,30.177h-1.536l-9.03-27.343-1.089-3.294q-1.491-4.467-3.072-5.64a6.886,6.886,0,0,0-2.846-1.128Z"/><path class="cls-3" d="M182.3,401.435H199.83v.994a8.354,8.354,0,0,0-2.665.721,3.287,3.287,0,0,0-1.763,3.068q0,1.8,1.844,6.45l7.553,19.351,6.6-16.284q2.439-6.089,2.439-8.615a4.5,4.5,0,0,0-1.129-3.225,5.265,5.265,0,0,0-3.3-1.466v-.994h12.92v.994a11.281,11.281,0,0,0-2.869,1.129,6.407,6.407,0,0,0-1.784,1.853,65.071,65.071,0,0,0-4.156,8.9l-13.1,31.8q-2.349,5.693-3.795,7.409a7.794,7.794,0,0,1-6.189,2.846,7.143,7.143,0,0,1-3.862-.926,2.77,2.77,0,0,1-1.468-2.417,2.3,2.3,0,0,1,.855-1.875,3.447,3.447,0,0,1,2.252-.7,7.224,7.224,0,0,1,2.7.633q1.486.587,1.915.723a3.414,3.414,0,0,0,1.013.135q2.793,0,4.55-4.219l1.4-3.448a9.691,9.691,0,0,0,.9-3.357,18.6,18.6,0,0,0-1.71-5.82l-9.363-22.516-1.35-3.249q-1.219-2.889-1.9-4.107a5.954,5.954,0,0,0-1.355-1.76,5.414,5.414,0,0,0-2.711-1.037Z"/><path class="cls-3" d="M261,435.453l.768.451q-1.626,4.745-7.454,4.744a8.7,8.7,0,0,1-5.339-1.581,11.952,11.952,0,0,1-2.9-3.614,29.962,29.962,0,0,1-4.57,3.568,13.882,13.882,0,0,1-6.832,1.627,12.078,12.078,0,0,1-7.895-2.4,7.92,7.92,0,0,1-2.918-6.46,8.782,8.782,0,0,1,2.394-6.279,10.7,10.7,0,0,1,3.118-2.237,29.949,29.949,0,0,1,5.1-1.694q3.931-.993,5.806-1.671a12.044,12.044,0,0,0,3.139-1.626,5.433,5.433,0,0,0,1.988-2.44,11.115,11.115,0,0,0,.542-3.885q0-5.286-1.988-7.725a6.5,6.5,0,0,0-2.326-1.807,6.8,6.8,0,0,0-2.959-.678,5.789,5.789,0,0,0-5.467,3.569l-1.129,2.62a3.258,3.258,0,0,1-3.252,2.123,3.537,3.537,0,0,1-2.576-1.016,3.419,3.419,0,0,1-1.039-2.552q0-2.305,3.259-3.886a19.809,19.809,0,0,1,4.366-1.332,25.99,25.99,0,0,1,5.09-.52,25.2,25.2,0,0,1,5.838.723,20.111,20.111,0,0,1,5.068,1.853,7.177,7.177,0,0,1,3.665,4.336,19.869,19.869,0,0,1,.362,4.563v16.715a29.952,29.952,0,0,0,.362,5.783q.767,3.209,3.7,3.207a4.1,4.1,0,0,0,2.191-.5A7.831,7.831,0,0,0,261,435.453Zm-14.954-17.8a30.165,30.165,0,0,1-5.358,3.569,46.87,46.87,0,0,0-4.549,2.665,12.005,12.005,0,0,0-2.3,2.169,9.416,9.416,0,0,0-2.117,6.1,7.358,7.358,0,0,0,1.643,4.924,5.221,5.221,0,0,0,4.166,1.942,7.108,7.108,0,0,0,4.165-1.378,8.492,8.492,0,0,0,2.95-3.682q1.4-3.025,1.4-8.764Z"/><path class="cls-3" d="M273.512,401.435h11.474v1.717H273.512v26.292q0,4.743,1.621,6.776a5.717,5.717,0,0,0,2.251,1.762,7.2,7.2,0,0,0,3.016.633,6.313,6.313,0,0,0,3.378-.836,11.665,11.665,0,0,0,2.972-3.049l.676.587a9.374,9.374,0,0,1-4.179,4.02,15.27,15.27,0,0,1-6.709,1.311q-5.331,0-7.77-2.078a5.014,5.014,0,0,1-1.717-2.6,24.332,24.332,0,0,1-.406-5.444V403.152h-4.834v-.723a12.708,12.708,0,0,0,5.425-3.659,18.183,18.183,0,0,0,2.41-3.321,23.513,23.513,0,0,0,1.728-4.269l.454-1.491h1.684Z"/><path class="cls-3" d="M297.5,401.435h11.475v1.717H297.5v26.292q0,4.743,1.621,6.776a5.713,5.713,0,0,0,2.252,1.762,7.2,7.2,0,0,0,3.016.633,6.326,6.326,0,0,0,3.379-.836,11.663,11.663,0,0,0,2.97-3.049l.676.587a9.366,9.366,0,0,1-4.18,4.02,15.258,15.258,0,0,1-6.707,1.311q-5.331,0-7.771-2.078a5.026,5.026,0,0,1-1.717-2.6,24.456,24.456,0,0,1-.406-5.444V403.152H285.8v-.723a12.717,12.717,0,0,0,5.426-3.659,18.183,18.183,0,0,0,2.41-3.321,23.658,23.658,0,0,0,1.728-4.269l.453-1.491H297.5Z"/></g><g class="cls-2"><g class="cls-2"><path d="M127.515,449.689h3.138c2.7,0,4.235.933,4.235,3.5,0,2.447-1.534,3.651-4.235,3.651H128.1v5.672h-.584Zm2.92,6.6c2.591,0,3.832-.894,3.832-3.107,0-2.254-1.241-2.954-3.832-2.954H128.1v6.061Z"/></g><g class="cls-2"><path d="M141.752,456.722c.037-1.516-.328-3.186-2.153-3.186a4.611,4.611,0,0,0-2.847,1.126l-.292-.466a5.439,5.439,0,0,1,3.176-1.2c2.044,0,2.664,1.631,2.664,3.5v6.022h-.474l-.074-1.243h-.036a5.182,5.182,0,0,1-3.175,1.476,2.317,2.317,0,0,1-2.519-2.506C136.022,458.159,137.811,457.188,141.752,456.722Zm-3.175,5.477a4.836,4.836,0,0,0,3.175-1.593v-3.379c-3.832.465-5.146,1.4-5.146,2.991A1.8,1.8,0,0,0,138.577,462.2Z"/><path d="M145.55,453.225h.475l.073,1.748h.036a3.065,3.065,0,0,1,2.482-1.981,1.648,1.648,0,0,1,.84.195l-.146.542a1.709,1.709,0,0,0-.767-.155c-.8,0-1.752.661-2.445,2.487v6.449h-.548Z"/><path d="M151.318,453.769h-1.387V453.3l1.387-.078.073-2.719h.475v2.719h2.591v.544h-2.591v6.371c0,1.205.255,2.059,1.532,2.059a3.075,3.075,0,0,0,1.132-.311l.183.506a4.808,4.808,0,0,1-1.351.349c-1.606,0-2.044-1.088-2.044-2.68Z"/><path d="M156.32,450.194a.622.622,0,1,1,1.241,0,.622.622,0,1,1-1.241,0Zm.328,3.031h.548v9.285h-.548Z"/><path d="M163.839,452.992a3.462,3.462,0,0,1,2.555,1.165l-.365.428a3.069,3.069,0,0,0-2.19-1.049c-1.861,0-3.321,1.786-3.321,4.351s1.314,4.312,3.321,4.312a3.5,3.5,0,0,0,2.446-1.127l.328.428a3.988,3.988,0,0,1-2.774,1.243c-2.226,0-3.905-1.787-3.905-4.856C159.934,454.779,161.759,452.992,163.839,452.992Z"/><path d="M168.841,448.485h.548v13.131c0,.389.146.583.365.583a1.32,1.32,0,0,0,.328-.039l.11.5a1.523,1.523,0,0,1-.475.078c-.547,0-.876-.349-.876-1.243Z"/><path d="M176.033,452.992c2.008,0,3.285,1.515,3.285,4.274a3.736,3.736,0,0,1-.037.621h-6.424c0,2.486,1.351,4.312,3.432,4.312a3.818,3.818,0,0,0,2.408-.854l.256.5a4.462,4.462,0,0,1-2.7.893c-2.19,0-3.979-1.826-3.979-4.856S174.1,452.992,176.033,452.992Zm2.738,4.39c0-2.565-1.1-3.846-2.738-3.846-1.57,0-2.993,1.476-3.176,3.846Z"/></g></g><g class="cls-2"><g class="cls-2"><path d="M208.278,450.429h-3.905v-.545h8.4v.545h-3.906v12.276h-.584Z"/><path d="M215,448.68h.547v6.256a4.31,4.31,0,0,1,3.066-1.748c1.789,0,2.628,1.125,2.628,3.535v5.982h-.547v-5.9c0-2.059-.621-3.069-2.117-3.069-1.095,0-1.9.622-3.03,1.865v7.109H215Z"/><path d="M227.518,453.188c2.007,0,3.284,1.514,3.284,4.273a3.832,3.832,0,0,1-.036.621h-6.424c0,2.486,1.35,4.313,3.431,4.313a3.823,3.823,0,0,0,2.409-.855l.256.5a4.461,4.461,0,0,1-2.7.893c-2.19,0-3.978-1.826-3.978-4.856S225.583,453.188,227.518,453.188Zm2.737,4.389c0-2.564-1.095-3.846-2.737-3.846-1.57,0-2.994,1.476-3.176,3.846Z"/></g><g class="cls-2"><path d="M233.257,453.42h.475l.073,1.748h.036a3.063,3.063,0,0,1,2.482-1.98,1.657,1.657,0,0,1,.84.194l-.146.543a1.709,1.709,0,0,0-.767-.155c-.8,0-1.752.661-2.445,2.486v6.449h-.548Z"/></g><g class="cls-2"><path d="M243.661,456.917c.036-1.516-.329-3.186-2.154-3.186a4.62,4.62,0,0,0-2.847,1.126l-.292-.465a5.432,5.432,0,0,1,3.176-1.2c2.044,0,2.664,1.63,2.664,3.5v6.021h-.474l-.073-1.243h-.037a5.18,5.18,0,0,1-3.175,1.476,2.316,2.316,0,0,1-2.518-2.5C237.931,458.354,239.719,457.383,243.661,456.917Zm-3.176,5.478a4.838,4.838,0,0,0,3.176-1.593v-3.38c-3.833.466-5.146,1.4-5.146,2.991A1.8,1.8,0,0,0,240.485,462.4Z"/><path d="M248.006,463.521v3.5h-.548v-13.6h.475l.073,1.2h.036a5.072,5.072,0,0,1,3.03-1.436c2.372,0,3.5,1.864,3.5,4.739,0,3.146-1.789,5.011-3.869,5.011a4.617,4.617,0,0,1-2.7-1.166Zm2.737-1.126c1.9,0,3.249-1.866,3.249-4.468,0-2.37-.8-4.2-2.957-4.2a4.866,4.866,0,0,0-3.029,1.631v5.75A4.409,4.409,0,0,0,250.743,462.4Z"/><path d="M256.805,466.435c1.094,0,1.861-1.127,2.336-2.642l.255-.855-3.614-9.518h.621l2.226,6.1c.292.777.657,1.787.986,2.6h.073c.292-.815.584-1.825.839-2.6l1.971-6.1h.584l-3.5,10.606c-.437,1.437-1.313,2.992-2.81,2.992a1.928,1.928,0,0,1-.839-.195l.145-.544A2.068,2.068,0,0,0,256.805,466.435Z"/><path d="M273.122,449.651a4.136,4.136,0,0,1,3.212,1.516l-.365.428a3.547,3.547,0,0,0-2.847-1.361c-2.884,0-4.636,2.331-4.636,6.022s1.679,6.1,4.49,6.1a4.019,4.019,0,0,0,2.883-1.048v-4.235h-2.993v-.544h3.577V461.5a4.488,4.488,0,0,1-3.5,1.437c-3.066,0-5.073-2.641-5.073-6.682S269.946,449.651,273.122,449.651Z"/></g><g class="cls-2"><path d="M279.478,453.42h.474l.073,1.748h.037a3.062,3.062,0,0,1,2.482-1.98,1.653,1.653,0,0,1,.839.194l-.146.543a1.707,1.707,0,0,0-.766-.155c-.8,0-1.752.661-2.446,2.486v6.449h-.547Z"/></g><g class="cls-2"><path d="M287.988,453.188c2.08,0,3.869,1.787,3.869,4.894,0,3.069-1.789,4.856-3.869,4.856s-3.869-1.787-3.869-4.856C284.119,454.975,285.907,453.188,287.988,453.188Zm0,9.207c1.862,0,3.285-1.749,3.285-4.313s-1.423-4.351-3.285-4.351-3.285,1.787-3.285,4.351S286.127,462.4,287.988,462.4Z"/><path d="M294.451,453.42H295v5.9c0,2.059.621,3.07,2.117,3.07,1.095,0,1.9-.623,2.993-2.021V453.42h.547v9.285h-.474l-.073-1.593h-.037a3.918,3.918,0,0,1-2.993,1.826c-1.788,0-2.627-1.126-2.627-3.535Z"/><path d="M304.709,463.521v3.5h-.548v-13.6h.475l.073,1.2h.036a5.072,5.072,0,0,1,3.029-1.436c2.372,0,3.5,1.864,3.5,4.739,0,3.146-1.788,5.011-3.869,5.011a4.615,4.615,0,0,1-2.7-1.166Zm2.737-1.126c1.9,0,3.248-1.866,3.248-4.468,0-2.37-.8-4.2-2.956-4.2a4.862,4.862,0,0,0-3.029,1.631v5.75A4.412,4.412,0,0,0,307.446,462.4Z"/></g></g><circle class="cls-4" cx="353.169" cy="436.146" r="21.978"/><circle class="cls-5" cx="377.371" cy="431.523" r="21.978"/><circle class="cls-6" cx="360.239" cy="416.434" r="21.978"/></svg>